<svg width="118" height="118" viewBox="0 0 118 118" fill="none" xmlns="http://www.w3.org/2000/svg">
<g id="engagement-icone">
<path id="Ellipse 2" d="M58.6309 109.761C86.8694 109.761 109.761 86.8689 109.761 58.6304C109.761 30.3919 86.8694 7.5 58.6309 7.5C30.3923 7.5 7.50049 30.3919 7.50049 58.6304C7.50049 86.8689 30.3923 109.761 58.6309 109.761Z" fill="url(#paint0_linear_3_2025)" stroke="white" stroke-width="15"/>
<path id="Vector" d="M42.1067 49.9949V37.6774C42.1067 37.3029 42.4096 37 42.7841 37H84.3243C84.6989 37 85.0017 37.3029 85.0017 37.6774V79.2176C85.0017 79.5922 84.6989 79.8951 84.3243 79.8951H70.5284" stroke="white" stroke-width="2" stroke-miterlimit="10" stroke-linecap="round"/>
<path id="Vector_2" d="M58.0636 37V46.9643C58.0636 47.036 58.1209 47.0934 58.1926 47.0934H69.2108C69.2824 47.0934 69.3398 47.036 69.3398 46.9643L69.3523 37" stroke="white" stroke-width="2" stroke-miterlimit="10" stroke-linecap="round"/>
<g id="Group">
<path id="Vector_3" d="M38.4595 82.2213H39.5026C40.4219 82.2213 41.3234 82.4489 42.1352 82.8754C42.3413 82.9847 42.5528 83.0994 42.7643 83.2159C44.5098 84.1514 46.4597 84.6407 48.44 84.6407H59.9151C61.3596 84.6407 62.5317 83.4704 62.5317 82.0241C62.5317 80.5797 61.3614 79.4076 59.9151 79.4076H56.9885M60.9187 68.9468H63.8453C65.2898 68.9468 66.4618 67.7766 66.4618 66.3303C66.4618 64.8858 65.2916 63.7138 63.8453 63.7138H56.1409C53.6014 63.7138 53.0207 63.7245 51.8343 63.6367C51.2698 63.5955 50.8343 63.0471 51.0082 62.5077C51.0243 62.4611 51.4401 61.6367 51.6246 61.2818C52.9903 58.3517 54.4939 52.5379 50.854 51.6956C50.8451 51.6938 50.8361 51.6903 50.8254 51.6885C50.302 51.5899 49.5171 51.5917 48.9418 52.2673C47.9615 53.7745 45.6747 59.6456 42.5564 62.6277C41.8503 63.3034 40.9058 64.3195 39.9291 64.3195H38.1136" stroke="white" stroke-width="2" stroke-miterlimit="10" stroke-linecap="round"/>
<path id="Vector_4" d="M59.5493 74.1781H62.4759C63.9204 74.1781 65.0924 73.0079 65.0924 71.5616C65.0924 70.1171 63.9222 68.9451 62.4759 68.9451H59.5493" stroke="white" stroke-width="2" stroke-miterlimit="10" stroke-linecap="round"/>
<path id="Vector_5" d="M58.4507 79.4093H61.3773C62.8217 79.4093 63.9938 78.2391 63.9938 76.7928C63.9938 75.3483 62.8235 74.1763 61.3773 74.1763H58.4507" stroke="white" stroke-width="2" stroke-miterlimit="10" stroke-linecap="round"/>
<path id="Vector_6" d="M37.0884 63.1207H33.0256C32.4594 63.1207 32.0005 63.5797 32.0005 64.1458V82.7627C32.0005 83.3288 32.4594 83.7878 33.0256 83.7878H37.0884C37.6545 83.7878 38.1135 83.3288 38.1135 82.7627V64.1458C38.1135 63.5797 37.6545 63.1207 37.0884 63.1207Z" stroke="white" stroke-width="2" stroke-miterlimit="10" stroke-linecap="round"/>
</g>
</g>
<defs>
<linearGradient id="paint0_linear_3_2025" x1="102.261" y1="58.6304" x2="15.0005" y2="58.6304" gradientUnits="userSpaceOnUse">
<stop stop-color="#115373"/>
<stop offset="1" stop-color="#115373"/>
</linearGradient>
</defs>
</svg>
