<svg width="88" height="88" viewBox="0 0 88 88" fill="none" xmlns="http://www.w3.org/2000/svg">
<circle cx="44.0967" cy="44.1011" r="43.5" fill="url(#paint0_linear_3_6595)"/>
<path d="M44.0968 60.1534C43.5396 60.1534 43.0895 59.7033 43.0895 59.1461V55.9206C43.0895 55.6956 42.9395 55.5027 42.7252 55.4384C40.2819 54.8062 38.5781 52.6094 38.5781 50.1127C38.5781 47.0694 41.0535 44.594 44.0968 44.594C47.1401 44.594 49.6154 47.0694 49.6154 50.1127C49.6154 52.6094 47.9116 54.8062 45.4684 55.4384C45.2541 55.492 45.1041 55.6956 45.1041 55.9206V59.1461C45.1041 59.7033 44.654 60.1534 44.0968 60.1534ZM44.0968 46.6193C42.1679 46.6193 40.5927 48.1945 40.5927 50.1234C40.5927 52.0522 42.1679 53.6274 44.0968 53.6274C46.0256 53.6274 47.6009 52.0522 47.6009 50.1234C47.6009 48.1945 46.0256 46.6193 44.0968 46.6193Z" fill="white"/>
<path d="M44.097 67.6758C35.8136 67.6758 26.5444 60.882 26.5444 51.7949V39.5789C26.5444 39.0217 26.9945 38.5716 27.5517 38.5716H30.5629C30.8308 38.5716 31.0558 38.3466 31.0558 38.0787V33.5673C31.0558 26.377 36.9066 20.5261 44.097 20.5261C51.2873 20.5261 57.1381 26.377 57.1381 33.5673V38.0787C57.1381 38.3466 57.3632 38.5716 57.6311 38.5716H60.6422C61.1994 38.5716 61.6495 39.0217 61.6495 39.5789V51.7949C61.6495 60.882 52.3803 67.6758 44.097 67.6758ZM29.0627 40.5969C28.7948 40.5969 28.5697 40.8219 28.5697 41.0898V51.7949C28.5697 59.7246 36.7673 65.6505 44.1077 65.6505C51.448 65.6505 59.6456 59.7246 59.6456 51.7949V41.0898C59.6456 40.8219 59.4206 40.5969 59.1527 40.5969H29.0627ZM44.097 26.5484C47.9761 26.5484 51.1266 29.6989 51.1266 33.578V38.0894C51.1266 38.3573 51.3516 38.5823 51.6195 38.5823H54.6306C54.8985 38.5823 55.1236 38.3573 55.1236 38.0894V33.578C55.1236 27.5021 50.1836 22.5514 44.097 22.5514C38.0104 22.5514 33.0811 27.4914 33.0811 33.5673V38.0787C33.0811 38.3466 33.3061 38.5716 33.574 38.5716H36.5852C36.8531 38.5716 37.0781 38.3466 37.0781 38.0787V33.5673C37.0781 29.6882 40.2286 26.5377 44.1077 26.5377L44.097 26.5484ZM44.097 28.563C41.3323 28.563 39.0927 30.8133 39.0927 33.5673V38.0787C39.0927 38.3466 39.3177 38.5716 39.5856 38.5716H48.6083C48.8762 38.5716 49.1013 38.3466 49.1013 38.0787V33.5673C49.1013 30.8026 46.8509 28.563 44.097 28.563Z" fill="white"/>
<defs>
<linearGradient id="paint0_linear_3_6595" x1="87.5967" y1="44.1011" x2="0.59668" y2="44.1011" gradientUnits="userSpaceOnUse">
<stop stop-color="#115373"/>
<stop offset="1" stop-color="#115373"/>
</linearGradient>
</defs>
</svg>
