<svg width="140" height="140" viewBox="0 0 140 140" fill="none" xmlns="http://www.w3.org/2000/svg">
<path d="M107.84 89.5856L107.84 89.5853L95.0703 76.8057L107.84 89.5856ZM107.84 89.5856C108.142 89.8874 108.142 90.3732 107.84 90.675C107.538 90.977 107.052 90.9771 106.75 90.6752C106.749 90.6751 106.749 90.6751 106.749 90.675L93.9799 77.8954L93.9796 77.8951M107.84 89.5856L93.9796 77.8951M93.9796 77.8951C93.6776 77.5933 93.6776 77.1075 93.9796 76.8057C94.2816 76.5038 94.7679 76.5037 95.07 76.8054L93.9796 77.8951ZM18.6135 102.11V102.86H19.3635H57.9826C57.9495 103.109 57.9297 103.367 57.9297 103.635C57.9297 103.903 57.9495 104.161 57.9826 104.41H17.8379C17.605 104.41 17.4145 104.324 17.299 104.202C17.1474 104.042 17.0622 103.827 17.0622 103.635V32.3238C17.0622 28.8342 19.8995 25.9976 23.3912 25.9976H116.609C120.101 25.9976 122.938 28.8342 122.938 32.3238V103.635C122.938 103.852 122.862 104.037 122.722 104.18C122.563 104.327 122.351 104.41 122.162 104.41H81.2394C81.2724 104.161 81.2923 103.903 81.2923 103.635C81.2923 103.367 81.2724 103.109 81.2394 102.86H120.637H121.387V102.11V32.3238C121.387 29.6827 119.25 27.5477 116.609 27.5477H23.3912C20.7499 27.5477 18.6135 29.6827 18.6135 32.3238V102.11ZM71.1639 63.6929L70.7757 63.9067V64.3498V83.2287L70 83.6551L69.2244 83.2287V64.3498V63.9073L68.837 63.6933L52.2996 54.5587L52.2989 54.5583L51.5573 54.1476V53.4475L52.5299 52.9141L69.6373 62.3679L70 62.5684L70.3628 62.3679L87.4702 52.9141L88.4428 53.4475V54.1475L78.0599 59.8955L78.0584 59.8963L71.1639 63.6929ZM70.3629 88.6596L80.4789 83.0678V84.8313L70.3691 90.4276L70.3627 90.4312C70.1343 90.5606 69.8505 90.5606 69.6221 90.4312L69.6154 90.4275L45.8503 77.2841C45.8497 77.2837 45.849 77.2834 45.8483 77.283C45.5934 77.1387 45.4394 76.8685 45.4394 76.5958V50.304C45.4394 50.0203 45.5898 49.7631 45.8483 49.6169C45.849 49.6165 45.8496 49.6161 45.8503 49.6157L69.6154 36.4724L69.6155 36.4724L69.6221 36.4686C69.8505 36.3393 70.1343 36.3393 70.3627 36.4686L70.3627 36.4687L70.3694 36.4724L94.1345 49.6157C94.1352 49.6161 94.1359 49.6165 94.1365 49.6169C94.3914 49.7611 94.5454 50.0314 94.5454 50.304V63.3099H92.9941V51.2038V50.7616L92.6072 50.5475L70.3631 38.2404L70 38.0395L69.637 38.2404L47.3929 50.5475L47.006 50.7616V51.2038V75.6961V76.1382L47.3929 76.3523L69.637 88.6594L69.9999 88.8602L70.3629 88.6596ZM88.8571 70.9507H88.1071V71.7007V86.3107C88.1071 86.735 87.7567 87.0857 87.3315 87.0857C86.9063 87.0857 86.5558 86.735 86.5558 86.3107V70.1757C86.5558 69.9591 86.6319 69.7735 86.7714 69.6305C86.9306 69.4833 87.1423 69.4006 87.3315 69.4006H103.473C103.898 69.4006 104.249 69.7514 104.249 70.1757C104.249 70.5999 103.898 70.9507 103.473 70.9507H88.8571ZM17.8379 114.002C12.1034 114.002 7.46582 109.366 7.46582 103.635C7.46582 103.211 7.8163 102.86 8.24148 102.86C8.66666 102.86 9.01713 103.211 9.01713 103.635C9.01713 106.068 10.0021 108.27 11.6017 109.869C13.2013 111.468 15.4036 112.452 17.8379 112.452H122.162C124.596 112.452 126.799 111.468 128.398 109.869C129.998 108.27 130.983 106.068 130.983 103.635C130.983 103.211 131.333 102.86 131.759 102.86C132.184 102.86 132.534 103.211 132.534 103.635C132.534 109.366 127.897 114.002 122.162 114.002H17.8379ZM74.4397 104.41H64.767C64.3419 104.41 63.9914 104.06 63.9914 103.635C63.9914 103.211 64.3419 102.86 64.767 102.86H74.4397C74.8648 102.86 75.2154 103.211 75.2154 103.635C75.2154 104.06 74.8648 104.41 74.4397 104.41Z" fill="white" stroke="white" stroke-width="1.5"/>
</svg>
