<svg width="142" height="140" viewBox="0 0 142 140" fill="none" xmlns="http://www.w3.org/2000/svg">
<path d="M55.7065 40.3729C55.0483 39.8186 54.0666 39.9045 53.5143 40.5649L39.4186 57.418C39.0141 57.902 38.4992 57.9754 38.2269 57.9754H38.2238C37.9515 57.9754 37.4365 57.9004 37.0305 57.4117L31.7609 51.0508C31.2117 50.3873 30.23 50.2967 29.5703 50.8479C28.9091 51.399 28.8189 52.3842 29.3681 53.0462L34.6376 59.4071C35.5244 60.4782 36.8282 61.0933 38.216 61.0965H38.2269C39.61 61.0965 40.9122 60.4876 41.8021 59.4243L55.8978 42.5712C56.4501 41.9108 56.3646 40.9256 55.7065 40.3713V40.3729Z" fill="white"/>
<path d="M140.408 76.7083L131.177 56.4671C130.217 54.3609 128.106 53.001 125.799 53.001H103.33V44.9414C103.33 41.6688 100.676 39.0052 97.4147 39.0052H75.9647C75.1059 39.0052 74.4089 39.7046 74.4089 40.5665C74.4089 41.4283 75.1059 42.1278 75.9647 42.1278H97.4147C98.9612 42.1278 100.218 43.3894 100.218 44.9414V103.342H66.2751C64.8609 98.2547 60.2043 94.5106 54.6905 94.5106C49.1767 94.5106 44.5202 98.2547 43.1059 103.342H37.5704C36.0239 103.342 34.7668 102.08 34.7668 100.528V84.2417C34.7668 83.3799 34.0698 82.6804 33.211 82.6804C32.3522 82.6804 31.6551 83.3799 31.6551 84.2417V100.528C31.6551 103.801 34.3094 106.464 37.5704 106.464H42.6641C42.6641 106.503 42.661 106.542 42.661 106.581C42.661 113.237 48.0565 118.652 54.689 118.652C61.3214 118.652 66.717 113.237 66.717 106.581C66.717 106.542 66.7138 106.503 66.7138 106.464H107.874C107.874 106.503 107.871 106.542 107.871 106.581C107.871 113.237 113.267 118.652 119.899 118.652C126.532 118.652 131.927 113.237 131.927 106.581C131.927 106.542 131.924 106.503 131.924 106.464H135.476C138.737 106.464 141.391 103.801 141.391 100.528V81.2549C141.391 79.6748 141.058 78.1447 140.403 76.7067L140.408 76.7083ZM54.6921 115.531C49.7757 115.531 45.7757 111.517 45.7757 106.583C45.7757 101.649 49.7757 97.6349 54.6921 97.6349C59.6084 97.6349 63.6084 101.649 63.6084 106.583C63.6084 111.517 59.6084 115.531 54.6921 115.531ZM119.902 115.531C114.986 115.531 110.986 111.517 110.986 106.583C110.986 101.649 114.986 97.6349 119.902 97.6349C124.819 97.6349 128.819 101.649 128.819 106.583C128.819 111.517 124.819 115.531 119.902 115.531ZM135.481 103.343H131.489C130.074 98.2563 125.418 94.5122 119.904 94.5122C114.39 94.5122 109.734 98.2563 108.319 103.343H103.331V56.1252H125.801C126.894 56.1252 127.895 56.77 128.349 57.7677L130.144 61.7054H111.906C110.189 61.7054 108.794 63.1059 108.794 64.8281V77.6545C108.794 79.3766 110.189 80.7771 111.906 80.7771H130.837C131.695 80.7771 132.393 80.0777 132.393 79.2158C132.393 78.3539 131.695 77.6545 130.837 77.6545H111.906V64.8281H131.568L137.578 78.0089C138.046 79.0347 138.283 80.1276 138.283 81.258V87.7891H134.118C133.259 87.7891 132.562 88.4886 132.562 89.3504C132.562 90.2123 133.259 90.9118 134.118 90.9118H138.283V100.531C138.283 102.083 137.026 103.345 135.479 103.345L135.481 103.343Z" fill="white"/>
<path d="M71.7376 50.5528C71.7376 34.4492 58.6827 21.348 42.6361 21.348C26.5894 21.348 13.533 34.4492 13.533 50.5528C13.533 66.6564 26.5879 79.7576 42.6345 79.7576C58.6812 79.7576 71.736 66.6564 71.736 50.5528H71.7376ZM16.6447 50.5528C16.6447 36.1713 28.3039 24.4707 42.6345 24.4707C56.9651 24.4707 68.6244 36.1713 68.6244 50.5528C68.6244 64.9343 56.9651 76.6349 42.6345 76.6349C28.3039 76.6349 16.6447 64.9343 16.6447 50.5528Z" fill="white"/>
<path d="M24.9387 85.7768C25.7975 85.7768 26.4945 85.0772 26.4945 84.2153C26.4945 83.3533 25.7975 82.6538 24.9387 82.6538H13.5517C12.6929 82.6538 11.9959 83.3533 11.9959 84.2153C11.9959 85.0772 12.6929 85.7768 13.5517 85.7768H24.9387Z" fill="white"/>
<path d="M0.608887 93.3567C0.608887 94.2186 1.30589 94.9182 2.1647 94.9182H24.9387C25.7975 94.9182 26.4945 94.2186 26.4945 93.3567C26.4945 92.4947 25.7975 91.7952 24.9387 91.7952H2.1647C1.30589 91.7952 0.608887 92.4947 0.608887 93.3567Z" fill="white"/>
<path d="M24.9387 100.937H9.20942C8.35061 100.937 7.65361 101.637 7.65361 102.499C7.65361 103.361 8.35061 104.06 9.20942 104.06H24.9387C25.7975 104.06 26.4945 103.361 26.4945 102.499C26.4945 101.637 25.7975 100.937 24.9387 100.937Z" fill="white"/>
<path d="M100.291 87.789H77.8519C76.9931 87.789 76.2961 88.4885 76.2961 89.3505C76.2961 90.2124 76.9931 90.912 77.8519 90.912H100.291V87.789Z" fill="white"/>
</svg>
