<svg width="140" height="140" viewBox="0 0 140 140" fill="none" xmlns="http://www.w3.org/2000/svg">
<mask id="path-1-inside-1_3_6652" fill="white">
<path d="M94.934 97.0754C93.7344 97.1377 92.4521 96.8677 91.1698 96.5978C90.8595 96.5355 90.4666 96.2448 90.1977 96.5978C89.9702 96.9093 90.2391 97.2623 90.3425 97.5737C92.2659 102.89 94.1894 108.185 96.1129 113.501C96.6713 115.058 97.209 116.636 97.8088 118.194C98.2018 119.19 97.9536 120 97.2297 120.706C94.9753 122.886 92.3694 123.613 89.3704 122.617C88.5224 122.326 87.7985 122.347 86.9506 122.741C85.1512 123.613 83.2277 123.738 81.3456 122.99C80.3115 122.596 79.4015 122.575 78.3467 122.928C76.3819 123.592 74.3757 123.385 72.4729 122.533C71.687 122.18 71.0045 122.16 70.1565 122.43C67.0748 123.447 64.4275 122.326 62.0076 120.436C61.5733 120.104 61.3872 119.564 61.1803 119.066C58.533 112.047 55.927 105.008 53.1763 98.0306C52.3283 95.8918 51.8733 93.7945 52.4524 91.5934C53.0728 89.2884 52.5765 87.2742 51.2114 85.4054C50.8391 84.907 50.5496 84.3671 50.26 83.8064C49.7223 82.7682 49.288 81.8753 47.7988 82.7267C47.0129 83.1627 46.2063 82.3944 45.5445 81.8545C42.5455 79.3004 39.5466 76.7463 36.5683 74.1922C29.8052 68.3779 23.042 62.5637 16.2789 56.7494C14.9552 55.6074 13.6109 54.5276 12.3493 53.3232C11.1083 52.1396 11.522 50.3953 13.0938 49.7723C14.0038 49.4193 14.6657 49.8969 15.3068 50.4161C17.2923 52.0773 19.2365 53.7593 21.2013 55.4412C28.4608 61.6708 35.741 67.9003 43.0005 74.1299C44.2622 75.2097 45.5445 76.2687 46.7647 77.39C47.3645 77.9299 47.8609 77.9091 48.502 77.4523C53.6726 73.9222 58.8225 70.4129 64.0345 66.9451C64.8825 66.3845 64.7791 66.0107 64.2206 65.3462C52.7626 51.5582 41.3459 37.7493 29.9086 23.9405C28.9986 22.8399 28.0472 21.7601 27.1372 20.6596C26.889 20.3689 26.6615 20.0574 26.4753 19.7044C25.9789 18.7284 26.2064 17.5241 26.9717 16.9634C27.8404 16.3197 28.8538 16.3404 29.6811 17.2541C31.0875 18.7907 32.3905 20.4312 33.7141 22.0301C44.8826 35.5067 56.0304 48.9833 67.1989 62.4806C67.8607 63.2905 68.5639 64.0588 69.2258 64.8479C70.5701 66.4675 70.4254 67.6096 68.7501 68.8348C67.9779 69.4023 67.909 70.053 68.5433 70.7867C69.4946 71.908 70.4874 72.9878 71.4181 74.1299C71.9765 74.8151 72.6591 75.1474 73.4863 75.2512C76.6094 75.6457 79.7531 76.0403 82.8761 76.414C83.8482 76.5386 84.7582 76.8086 85.5855 77.3277C91.7696 81.2523 97.9743 85.1562 104.158 89.1016C106.682 90.7005 106.682 92.2163 104.241 93.9606C101.366 95.9956 98.3879 96.9715 94.934 96.9715V97.0754ZM94.8306 92.8185C96.237 92.9016 97.5193 92.7355 98.7602 92.2371C99.1325 92.0917 99.753 92.1748 99.7943 91.6557C99.8357 91.1988 99.2773 91.0327 98.9257 90.8251C93.9412 87.6688 88.9568 84.5125 83.9723 81.3562C83.3518 80.9616 82.6693 80.6709 81.9248 80.5878C79.2154 80.2556 76.506 79.8195 73.7759 79.6326C71.3561 79.4665 69.4326 78.719 67.9848 76.6425C67.0334 75.2512 65.7511 74.0883 64.6343 72.8009C64.2827 72.4064 63.9931 72.0326 63.3933 72.4479C60.0428 74.7321 56.6923 77.0162 53.3417 79.2796C52.804 79.6326 52.7419 79.9649 53.0935 80.5048C53.7967 81.6053 54.3758 82.8097 55.1204 83.8687C56.6923 86.0698 57.4782 88.354 56.7129 91.1158C56.2993 92.6732 56.1752 94.3344 56.837 96.0164C59.5051 102.827 62.049 109.659 64.655 116.512C65.172 117.882 66.3302 118.63 67.778 118.547C68.4192 118.526 68.6053 118.277 68.3985 117.674C68.0676 116.719 67.7366 115.785 67.4057 114.83C66.02 110.843 64.6343 106.877 63.2486 102.89C62.897 101.872 62.9383 100.979 63.869 100.294C65.1927 99.2973 66.6405 99.9202 67.2816 101.81C68.9776 106.71 70.6735 111.611 72.3695 116.491C73.0727 118.505 73.9414 119.066 76.051 119.024C76.9403 119.024 77.2299 118.754 76.8989 117.841C75.8028 114.83 74.748 111.798 73.7139 108.766C72.9486 106.565 72.1834 104.385 71.5215 102.163C71.1906 101.083 71.8318 100.066 72.8866 99.6918C73.9414 99.318 74.6652 99.8579 75.2237 100.668C75.4098 100.958 75.5132 101.291 75.6373 101.623C77.4367 106.814 79.236 112.006 81.0354 117.176C81.5318 118.609 82.2764 119.19 83.7448 119.232C85.1098 119.273 85.4201 118.9 84.9651 117.591C83.8068 114.227 82.628 110.863 81.4697 107.52C80.7665 105.506 80.0633 103.513 79.4635 101.478C79.1326 100.377 79.7945 99.2972 80.7665 98.965C81.7179 98.6535 82.752 99.1311 83.2691 100.128C83.3932 100.377 83.4966 100.626 83.5793 100.875C85.3994 106.129 87.2815 111.383 89.0188 116.678C89.66 118.63 90.6527 118.9 92.4314 118.796C93.2173 118.754 93.4448 118.38 93.176 117.654C92.6175 116.138 92.0798 114.601 91.5214 113.065C88.7499 105.423 85.9785 97.8022 83.2071 90.1606C82.7727 88.9562 83.2484 87.8972 84.4066 87.3988C85.4614 86.9627 86.3715 87.3365 86.9919 88.4786C87.1781 88.8108 87.3435 89.1846 87.4263 89.5376C87.6538 90.5344 88.3156 91.1158 89.2049 91.5103C91.025 92.2994 92.8864 92.9223 94.8306 92.8185Z"/>
<path d="M128.357 69.8519C128.357 84.5536 128.357 99.2761 128.357 113.978C128.357 114.518 128.357 115.058 128.315 115.598C128.212 116.698 127.612 117.383 126.495 117.549C125.916 117.632 125.337 117.674 124.779 117.674C117.726 117.674 110.673 117.674 103.621 117.674C103 117.674 102.38 117.632 101.78 117.487C100.725 117.259 100.167 116.428 100.27 115.348C100.353 114.289 100.932 113.625 101.987 113.479C102.442 113.417 102.917 113.438 103.372 113.438C109.763 113.438 116.175 113.438 122.566 113.438C124.075 113.438 124.117 113.396 124.117 111.86C124.117 83.8683 124.117 55.8769 124.117 27.8855C124.117 26.2035 124.117 26.1827 122.442 26.1204C114.396 25.809 106.33 26.0374 98.2845 25.9958C97.0229 25.9958 95.7406 26.2035 94.479 26.0789C93.631 25.9958 93.6517 26.5773 93.6517 27.1379C93.6517 29.2352 93.6517 31.3117 93.6517 33.409C93.6517 37.9773 93.6517 42.5457 93.6517 47.114C93.6517 49.6266 92.9278 50.3326 90.4046 50.3326C83.9723 50.3326 77.5401 50.3326 71.0872 50.3326C68.3778 50.3326 67.716 49.6681 67.6953 46.8856C67.6953 40.4692 67.6953 34.032 67.6953 27.6155C67.6953 26.1827 67.6539 26.1412 66.1855 26.1412C58.5537 26.1412 50.9219 26.1412 43.2901 26.1412C42.5662 26.1412 41.8217 26.0997 41.0978 25.9958C40.0843 25.8505 39.3398 24.9368 39.3398 24.0024C39.3398 23.0057 40.1671 22.0712 41.2012 21.9466C41.6148 21.8843 42.0492 21.9051 42.4628 21.9051C69.9497 21.9051 97.4366 21.9051 124.923 21.9051C125.316 21.9051 125.689 21.9051 126.082 21.9051C127.405 21.9882 128.129 22.6526 128.315 23.9816C128.377 24.4385 128.377 24.9161 128.377 25.3729C128.377 40.1992 128.377 55.0255 128.377 69.8519H128.357ZM71.9352 36.0254C71.9352 38.891 71.9766 41.7566 71.9352 44.6222C71.9145 45.702 72.2041 46.138 73.3623 46.1173C78.3054 46.055 83.2278 46.055 88.1709 46.1173C89.2463 46.1173 89.4532 45.702 89.4532 44.7468C89.4118 41.4244 89.4532 38.0812 89.4325 34.7587C89.4325 32.2046 89.4325 29.6505 89.4325 27.0964C89.4325 26.515 89.4118 26.0374 88.5845 26.0581C83.4966 26.1204 78.4088 26.162 73.3209 26.1412C72.2248 26.1412 71.9352 26.515 71.9559 27.5532C72.0179 30.3773 71.9559 33.2013 71.9766 36.0254H71.9352Z"/>
<path d="M32.949 97.1581C32.949 91.4269 32.949 85.6957 32.949 79.9853C32.949 79.6323 32.949 79.2792 32.9697 78.947C33.0938 77.7219 33.921 76.8705 35.0379 76.8497C36.1134 76.829 37.0027 77.6803 37.1268 78.9055C37.1889 79.5284 37.1889 80.1514 37.1889 80.7536C37.1889 91.1569 37.1889 101.581 37.1682 111.984C37.1682 113.106 37.5198 113.459 38.6159 113.459C44.2416 113.417 49.8672 113.438 55.4928 113.459C56.7751 113.459 57.6644 114.31 57.7265 115.494C57.7885 116.511 56.9819 117.425 55.8237 117.632C55.4514 117.695 55.0584 117.695 54.6655 117.695C48.9985 117.695 43.3315 117.695 37.6646 117.695C37.0027 117.695 36.3616 117.695 35.6997 117.695C33.7556 117.695 32.949 116.885 32.9283 114.933C32.9283 109.015 32.9283 103.097 32.9283 97.1788L32.949 97.1581Z"/>
</mask>
<path d="M94.934 97.0754C93.7344 97.1377 92.4521 96.8677 91.1698 96.5978C90.8595 96.5355 90.4666 96.2448 90.1977 96.5978C89.9702 96.9093 90.2391 97.2623 90.3425 97.5737C92.2659 102.89 94.1894 108.185 96.1129 113.501C96.6713 115.058 97.209 116.636 97.8088 118.194C98.2018 119.19 97.9536 120 97.2297 120.706C94.9753 122.886 92.3694 123.613 89.3704 122.617C88.5224 122.326 87.7985 122.347 86.9506 122.741C85.1512 123.613 83.2277 123.738 81.3456 122.99C80.3115 122.596 79.4015 122.575 78.3467 122.928C76.3819 123.592 74.3757 123.385 72.4729 122.533C71.687 122.18 71.0045 122.16 70.1565 122.43C67.0748 123.447 64.4275 122.326 62.0076 120.436C61.5733 120.104 61.3872 119.564 61.1803 119.066C58.533 112.047 55.927 105.008 53.1763 98.0306C52.3283 95.8918 51.8733 93.7945 52.4524 91.5934C53.0728 89.2884 52.5765 87.2742 51.2114 85.4054C50.8391 84.907 50.5496 84.3671 50.26 83.8064C49.7223 82.7682 49.288 81.8753 47.7988 82.7267C47.0129 83.1627 46.2063 82.3944 45.5445 81.8545C42.5455 79.3004 39.5466 76.7463 36.5683 74.1922C29.8052 68.3779 23.042 62.5637 16.2789 56.7494C14.9552 55.6074 13.6109 54.5276 12.3493 53.3232C11.1083 52.1396 11.522 50.3953 13.0938 49.7723C14.0038 49.4193 14.6657 49.8969 15.3068 50.4161C17.2923 52.0773 19.2365 53.7593 21.2013 55.4412C28.4608 61.6708 35.741 67.9003 43.0005 74.1299C44.2622 75.2097 45.5445 76.2687 46.7647 77.39C47.3645 77.9299 47.8609 77.9091 48.502 77.4523C53.6726 73.9222 58.8225 70.4129 64.0345 66.9451C64.8825 66.3845 64.7791 66.0107 64.2206 65.3462C52.7626 51.5582 41.3459 37.7493 29.9086 23.9405C28.9986 22.8399 28.0472 21.7601 27.1372 20.6596C26.889 20.3689 26.6615 20.0574 26.4753 19.7044C25.9789 18.7284 26.2064 17.5241 26.9717 16.9634C27.8404 16.3197 28.8538 16.3404 29.6811 17.2541C31.0875 18.7907 32.3905 20.4312 33.7141 22.0301C44.8826 35.5067 56.0304 48.9833 67.1989 62.4806C67.8607 63.2905 68.5639 64.0588 69.2258 64.8479C70.5701 66.4675 70.4254 67.6096 68.7501 68.8348C67.9779 69.4023 67.909 70.053 68.5433 70.7867C69.4946 71.908 70.4874 72.9878 71.4181 74.1299C71.9765 74.8151 72.6591 75.1474 73.4863 75.2512C76.6094 75.6457 79.7531 76.0403 82.8761 76.414C83.8482 76.5386 84.7582 76.8086 85.5855 77.3277C91.7696 81.2523 97.9743 85.1562 104.158 89.1016C106.682 90.7005 106.682 92.2163 104.241 93.9606C101.366 95.9956 98.3879 96.9715 94.934 96.9715V97.0754ZM94.8306 92.8185C96.237 92.9016 97.5193 92.7355 98.7602 92.2371C99.1325 92.0917 99.753 92.1748 99.7943 91.6557C99.8357 91.1988 99.2773 91.0327 98.9257 90.8251C93.9412 87.6688 88.9568 84.5125 83.9723 81.3562C83.3518 80.9616 82.6693 80.6709 81.9248 80.5878C79.2154 80.2556 76.506 79.8195 73.7759 79.6326C71.3561 79.4665 69.4326 78.719 67.9848 76.6425C67.0334 75.2512 65.7511 74.0883 64.6343 72.8009C64.2827 72.4064 63.9931 72.0326 63.3933 72.4479C60.0428 74.7321 56.6923 77.0162 53.3417 79.2796C52.804 79.6326 52.7419 79.9649 53.0935 80.5048C53.7967 81.6053 54.3758 82.8097 55.1204 83.8687C56.6923 86.0698 57.4782 88.354 56.7129 91.1158C56.2993 92.6732 56.1752 94.3344 56.837 96.0164C59.5051 102.827 62.049 109.659 64.655 116.512C65.172 117.882 66.3302 118.63 67.778 118.547C68.4192 118.526 68.6053 118.277 68.3985 117.674C68.0676 116.719 67.7366 115.785 67.4057 114.83C66.02 110.843 64.6343 106.877 63.2486 102.89C62.897 101.872 62.9383 100.979 63.869 100.294C65.1927 99.2973 66.6405 99.9202 67.2816 101.81C68.9776 106.71 70.6735 111.611 72.3695 116.491C73.0727 118.505 73.9414 119.066 76.051 119.024C76.9403 119.024 77.2299 118.754 76.8989 117.841C75.8028 114.83 74.748 111.798 73.7139 108.766C72.9486 106.565 72.1834 104.385 71.5215 102.163C71.1906 101.083 71.8318 100.066 72.8866 99.6918C73.9414 99.318 74.6652 99.8579 75.2237 100.668C75.4098 100.958 75.5132 101.291 75.6373 101.623C77.4367 106.814 79.236 112.006 81.0354 117.176C81.5318 118.609 82.2764 119.19 83.7448 119.232C85.1098 119.273 85.4201 118.9 84.9651 117.591C83.8068 114.227 82.628 110.863 81.4697 107.52C80.7665 105.506 80.0633 103.513 79.4635 101.478C79.1326 100.377 79.7945 99.2972 80.7665 98.965C81.7179 98.6535 82.752 99.1311 83.2691 100.128C83.3932 100.377 83.4966 100.626 83.5793 100.875C85.3994 106.129 87.2815 111.383 89.0188 116.678C89.66 118.63 90.6527 118.9 92.4314 118.796C93.2173 118.754 93.4448 118.38 93.176 117.654C92.6175 116.138 92.0798 114.601 91.5214 113.065C88.7499 105.423 85.9785 97.8022 83.2071 90.1606C82.7727 88.9562 83.2484 87.8972 84.4066 87.3988C85.4614 86.9627 86.3715 87.3365 86.9919 88.4786C87.1781 88.8108 87.3435 89.1846 87.4263 89.5376C87.6538 90.5344 88.3156 91.1158 89.2049 91.5103C91.025 92.2994 92.8864 92.9223 94.8306 92.8185Z" fill="white"/>
<path d="M128.357 69.8519C128.357 84.5536 128.357 99.2761 128.357 113.978C128.357 114.518 128.357 115.058 128.315 115.598C128.212 116.698 127.612 117.383 126.495 117.549C125.916 117.632 125.337 117.674 124.779 117.674C117.726 117.674 110.673 117.674 103.621 117.674C103 117.674 102.38 117.632 101.78 117.487C100.725 117.259 100.167 116.428 100.27 115.348C100.353 114.289 100.932 113.625 101.987 113.479C102.442 113.417 102.917 113.438 103.372 113.438C109.763 113.438 116.175 113.438 122.566 113.438C124.075 113.438 124.117 113.396 124.117 111.86C124.117 83.8683 124.117 55.8769 124.117 27.8855C124.117 26.2035 124.117 26.1827 122.442 26.1204C114.396 25.809 106.33 26.0374 98.2845 25.9958C97.0229 25.9958 95.7406 26.2035 94.479 26.0789C93.631 25.9958 93.6517 26.5773 93.6517 27.1379C93.6517 29.2352 93.6517 31.3117 93.6517 33.409C93.6517 37.9773 93.6517 42.5457 93.6517 47.114C93.6517 49.6266 92.9278 50.3326 90.4046 50.3326C83.9723 50.3326 77.5401 50.3326 71.0872 50.3326C68.3778 50.3326 67.716 49.6681 67.6953 46.8856C67.6953 40.4692 67.6953 34.032 67.6953 27.6155C67.6953 26.1827 67.6539 26.1412 66.1855 26.1412C58.5537 26.1412 50.9219 26.1412 43.2901 26.1412C42.5662 26.1412 41.8217 26.0997 41.0978 25.9958C40.0843 25.8505 39.3398 24.9368 39.3398 24.0024C39.3398 23.0057 40.1671 22.0712 41.2012 21.9466C41.6148 21.8843 42.0492 21.9051 42.4628 21.9051C69.9497 21.9051 97.4366 21.9051 124.923 21.9051C125.316 21.9051 125.689 21.9051 126.082 21.9051C127.405 21.9882 128.129 22.6526 128.315 23.9816C128.377 24.4385 128.377 24.9161 128.377 25.3729C128.377 40.1992 128.377 55.0255 128.377 69.8519H128.357ZM71.9352 36.0254C71.9352 38.891 71.9766 41.7566 71.9352 44.6222C71.9145 45.702 72.2041 46.138 73.3623 46.1173C78.3054 46.055 83.2278 46.055 88.1709 46.1173C89.2463 46.1173 89.4532 45.702 89.4532 44.7468C89.4118 41.4244 89.4532 38.0812 89.4325 34.7587C89.4325 32.2046 89.4325 29.6505 89.4325 27.0964C89.4325 26.515 89.4118 26.0374 88.5845 26.0581C83.4966 26.1204 78.4088 26.162 73.3209 26.1412C72.2248 26.1412 71.9352 26.515 71.9559 27.5532C72.0179 30.3773 71.9559 33.2013 71.9766 36.0254H71.9352Z" fill="white"/>
<path d="M32.949 97.1581C32.949 91.4269 32.949 85.6957 32.949 79.9853C32.949 79.6323 32.949 79.2792 32.9697 78.947C33.0938 77.7219 33.921 76.8705 35.0379 76.8497C36.1134 76.829 37.0027 77.6803 37.1268 78.9055C37.1889 79.5284 37.1889 80.1514 37.1889 80.7536C37.1889 91.1569 37.1889 101.581 37.1682 111.984C37.1682 113.106 37.5198 113.459 38.6159 113.459C44.2416 113.417 49.8672 113.438 55.4928 113.459C56.7751 113.459 57.6644 114.31 57.7265 115.494C57.7885 116.511 56.9819 117.425 55.8237 117.632C55.4514 117.695 55.0584 117.695 54.6655 117.695C48.9985 117.695 43.3315 117.695 37.6646 117.695C37.0027 117.695 36.3616 117.695 35.6997 117.695C33.7556 117.695 32.949 116.885 32.9283 114.933C32.9283 109.015 32.9283 103.097 32.9283 97.1788L32.949 97.1581Z" fill="white"/>
<path d="M94.934 97.0754C93.7344 97.1377 92.4521 96.8677 91.1698 96.5978C90.8595 96.5355 90.4666 96.2448 90.1977 96.5978C89.9702 96.9093 90.2391 97.2623 90.3425 97.5737C92.2659 102.89 94.1894 108.185 96.1129 113.501C96.6713 115.058 97.209 116.636 97.8088 118.194C98.2018 119.19 97.9536 120 97.2297 120.706C94.9753 122.886 92.3694 123.613 89.3704 122.617C88.5224 122.326 87.7985 122.347 86.9506 122.741C85.1512 123.613 83.2277 123.738 81.3456 122.99C80.3115 122.596 79.4015 122.575 78.3467 122.928C76.3819 123.592 74.3757 123.385 72.4729 122.533C71.687 122.18 71.0045 122.16 70.1565 122.43C67.0748 123.447 64.4275 122.326 62.0076 120.436C61.5733 120.104 61.3872 119.564 61.1803 119.066C58.533 112.047 55.927 105.008 53.1763 98.0306C52.3283 95.8918 51.8733 93.7945 52.4524 91.5934C53.0728 89.2884 52.5765 87.2742 51.2114 85.4054C50.8391 84.907 50.5496 84.3671 50.26 83.8064C49.7223 82.7682 49.288 81.8753 47.7988 82.7267C47.0129 83.1627 46.2063 82.3944 45.5445 81.8545C42.5455 79.3004 39.5466 76.7463 36.5683 74.1922C29.8052 68.3779 23.042 62.5637 16.2789 56.7494C14.9552 55.6074 13.6109 54.5276 12.3493 53.3232C11.1083 52.1396 11.522 50.3953 13.0938 49.7723C14.0038 49.4193 14.6657 49.8969 15.3068 50.4161C17.2923 52.0773 19.2365 53.7593 21.2013 55.4412C28.4608 61.6708 35.741 67.9003 43.0005 74.1299C44.2622 75.2097 45.5445 76.2687 46.7647 77.39C47.3645 77.9299 47.8609 77.9091 48.502 77.4523C53.6726 73.9222 58.8225 70.4129 64.0345 66.9451C64.8825 66.3845 64.7791 66.0107 64.2206 65.3462C52.7626 51.5582 41.3459 37.7493 29.9086 23.9405C28.9986 22.8399 28.0472 21.7601 27.1372 20.6596C26.889 20.3689 26.6615 20.0574 26.4753 19.7044C25.9789 18.7284 26.2064 17.5241 26.9717 16.9634C27.8404 16.3197 28.8538 16.3404 29.6811 17.2541C31.0875 18.7907 32.3905 20.4312 33.7141 22.0301C44.8826 35.5067 56.0304 48.9833 67.1989 62.4806C67.8607 63.2905 68.5639 64.0588 69.2258 64.8479C70.5701 66.4675 70.4254 67.6096 68.7501 68.8348C67.9779 69.4023 67.909 70.053 68.5433 70.7867C69.4946 71.908 70.4874 72.9878 71.4181 74.1299C71.9765 74.8151 72.6591 75.1474 73.4863 75.2512C76.6094 75.6457 79.7531 76.0403 82.8761 76.414C83.8482 76.5386 84.7582 76.8086 85.5855 77.3277C91.7696 81.2523 97.9743 85.1562 104.158 89.1016C106.682 90.7005 106.682 92.2163 104.241 93.9606C101.366 95.9956 98.3879 96.9715 94.934 96.9715V97.0754ZM94.8306 92.8185C96.237 92.9016 97.5193 92.7355 98.7602 92.2371C99.1325 92.0917 99.753 92.1748 99.7943 91.6557C99.8357 91.1988 99.2773 91.0327 98.9257 90.8251C93.9412 87.6688 88.9568 84.5125 83.9723 81.3562C83.3518 80.9616 82.6693 80.6709 81.9248 80.5878C79.2154 80.2556 76.506 79.8195 73.7759 79.6326C71.3561 79.4665 69.4326 78.719 67.9848 76.6425C67.0334 75.2512 65.7511 74.0883 64.6343 72.8009C64.2827 72.4064 63.9931 72.0326 63.3933 72.4479C60.0428 74.7321 56.6923 77.0162 53.3417 79.2796C52.804 79.6326 52.7419 79.9649 53.0935 80.5048C53.7967 81.6053 54.3758 82.8097 55.1204 83.8687C56.6923 86.0698 57.4782 88.354 56.7129 91.1158C56.2993 92.6732 56.1752 94.3344 56.837 96.0164C59.5051 102.827 62.049 109.659 64.655 116.512C65.172 117.882 66.3302 118.63 67.778 118.547C68.4192 118.526 68.6053 118.277 68.3985 117.674C68.0676 116.719 67.7366 115.785 67.4057 114.83C66.02 110.843 64.6343 106.877 63.2486 102.89C62.897 101.872 62.9383 100.979 63.869 100.294C65.1927 99.2973 66.6405 99.9202 67.2816 101.81C68.9776 106.71 70.6735 111.611 72.3695 116.491C73.0727 118.505 73.9414 119.066 76.051 119.024C76.9403 119.024 77.2299 118.754 76.8989 117.841C75.8028 114.83 74.748 111.798 73.7139 108.766C72.9486 106.565 72.1834 104.385 71.5215 102.163C71.1906 101.083 71.8318 100.066 72.8866 99.6918C73.9414 99.318 74.6652 99.8579 75.2237 100.668C75.4098 100.958 75.5132 101.291 75.6373 101.623C77.4367 106.814 79.236 112.006 81.0354 117.176C81.5318 118.609 82.2764 119.19 83.7448 119.232C85.1098 119.273 85.4201 118.9 84.9651 117.591C83.8068 114.227 82.628 110.863 81.4697 107.52C80.7665 105.506 80.0633 103.513 79.4635 101.478C79.1326 100.377 79.7945 99.2972 80.7665 98.965C81.7179 98.6535 82.752 99.1311 83.2691 100.128C83.3932 100.377 83.4966 100.626 83.5793 100.875C85.3994 106.129 87.2815 111.383 89.0188 116.678C89.66 118.63 90.6527 118.9 92.4314 118.796C93.2173 118.754 93.4448 118.38 93.176 117.654C92.6175 116.138 92.0798 114.601 91.5214 113.065C88.7499 105.423 85.9785 97.8022 83.2071 90.1606C82.7727 88.9562 83.2484 87.8972 84.4066 87.3988C85.4614 86.9627 86.3715 87.3365 86.9919 88.4786C87.1781 88.8108 87.3435 89.1846 87.4263 89.5376C87.6538 90.5344 88.3156 91.1158 89.2049 91.5103C91.025 92.2994 92.8864 92.9223 94.8306 92.8185Z" stroke="#133873" stroke-linejoin="round" mask="url(#path-1-inside-1_3_6652)"/>
<path d="M128.357 69.8519C128.357 84.5536 128.357 99.2761 128.357 113.978C128.357 114.518 128.357 115.058 128.315 115.598C128.212 116.698 127.612 117.383 126.495 117.549C125.916 117.632 125.337 117.674 124.779 117.674C117.726 117.674 110.673 117.674 103.621 117.674C103 117.674 102.38 117.632 101.78 117.487C100.725 117.259 100.167 116.428 100.27 115.348C100.353 114.289 100.932 113.625 101.987 113.479C102.442 113.417 102.917 113.438 103.372 113.438C109.763 113.438 116.175 113.438 122.566 113.438C124.075 113.438 124.117 113.396 124.117 111.86C124.117 83.8683 124.117 55.8769 124.117 27.8855C124.117 26.2035 124.117 26.1827 122.442 26.1204C114.396 25.809 106.33 26.0374 98.2845 25.9958C97.0229 25.9958 95.7406 26.2035 94.479 26.0789C93.631 25.9958 93.6517 26.5773 93.6517 27.1379C93.6517 29.2352 93.6517 31.3117 93.6517 33.409C93.6517 37.9773 93.6517 42.5457 93.6517 47.114C93.6517 49.6266 92.9278 50.3326 90.4046 50.3326C83.9723 50.3326 77.5401 50.3326 71.0872 50.3326C68.3778 50.3326 67.716 49.6681 67.6953 46.8856C67.6953 40.4692 67.6953 34.032 67.6953 27.6155C67.6953 26.1827 67.6539 26.1412 66.1855 26.1412C58.5537 26.1412 50.9219 26.1412 43.2901 26.1412C42.5662 26.1412 41.8217 26.0997 41.0978 25.9958C40.0843 25.8505 39.3398 24.9368 39.3398 24.0024C39.3398 23.0057 40.1671 22.0712 41.2012 21.9466C41.6148 21.8843 42.0492 21.9051 42.4628 21.9051C69.9497 21.9051 97.4366 21.9051 124.923 21.9051C125.316 21.9051 125.689 21.9051 126.082 21.9051C127.405 21.9882 128.129 22.6526 128.315 23.9816C128.377 24.4385 128.377 24.9161 128.377 25.3729C128.377 40.1992 128.377 55.0255 128.377 69.8519H128.357ZM71.9352 36.0254C71.9352 38.891 71.9766 41.7566 71.9352 44.6222C71.9145 45.702 72.2041 46.138 73.3623 46.1173C78.3054 46.055 83.2278 46.055 88.1709 46.1173C89.2463 46.1173 89.4532 45.702 89.4532 44.7468C89.4118 41.4244 89.4532 38.0812 89.4325 34.7587C89.4325 32.2046 89.4325 29.6505 89.4325 27.0964C89.4325 26.515 89.4118 26.0374 88.5845 26.0581C83.4966 26.1204 78.4088 26.162 73.3209 26.1412C72.2248 26.1412 71.9352 26.515 71.9559 27.5532C72.0179 30.3773 71.9559 33.2013 71.9766 36.0254H71.9352Z" stroke="#133873" stroke-linejoin="round" mask="url(#path-1-inside-1_3_6652)"/>
<path d="M32.949 97.1581C32.949 91.4269 32.949 85.6957 32.949 79.9853C32.949 79.6323 32.949 79.2792 32.9697 78.947C33.0938 77.7219 33.921 76.8705 35.0379 76.8497C36.1134 76.829 37.0027 77.6803 37.1268 78.9055C37.1889 79.5284 37.1889 80.1514 37.1889 80.7536C37.1889 91.1569 37.1889 101.581 37.1682 111.984C37.1682 113.106 37.5198 113.459 38.6159 113.459C44.2416 113.417 49.8672 113.438 55.4928 113.459C56.7751 113.459 57.6644 114.31 57.7265 115.494C57.7885 116.511 56.9819 117.425 55.8237 117.632C55.4514 117.695 55.0584 117.695 54.6655 117.695C48.9985 117.695 43.3315 117.695 37.6646 117.695C37.0027 117.695 36.3616 117.695 35.6997 117.695C33.7556 117.695 32.949 116.885 32.9283 114.933C32.9283 109.015 32.9283 103.097 32.9283 97.1788L32.949 97.1581Z" stroke="#133873" stroke-linejoin="round" mask="url(#path-1-inside-1_3_6652)"/>
</svg>
