<svg width="88" height="88" viewBox="0 0 88 88" fill="none" xmlns="http://www.w3.org/2000/svg">
<circle cx="44.1147" cy="44.1011" r="43.5" fill="url(#paint0_linear_3_6626)"/>
<path d="M71.7059 45.8251H68.8006V42.435C68.7992 30.8236 58.0156 17.3264 44.1125 17.3264C30.2093 17.3264 19.4257 30.8236 19.4257 42.435V45.8251H16.5204C14.38 45.8251 12.6401 47.5758 12.6401 49.7265V55.7378C12.6401 57.8899 14.3814 59.6392 16.5204 59.6392H20.5506C21.1698 59.6392 21.6713 59.135 21.6713 58.5125V46.9519C21.6713 46.9321 21.6698 46.9124 21.6684 46.8913V42.435C21.6684 31.8659 31.4728 19.5799 44.1139 19.5799C56.7549 19.5799 66.5593 31.8659 66.5593 42.435V46.8857C66.5593 46.9068 66.5565 46.9293 66.5565 46.9505V57.3843H62.8177C63.5909 55.2195 64.014 52.8913 64.014 50.4758V43.9983C64.014 41.2026 62.2139 38.7687 59.5341 37.9406C55.5992 36.7251 48.4886 33.7997 45.0846 27.8743C44.8843 27.5265 44.5145 27.311 44.1139 27.311C43.7132 27.311 43.3434 27.525 43.1431 27.8743C39.7391 33.7997 32.6285 36.7237 28.6936 37.9406C26.0152 38.7687 24.2151 41.2026 24.2151 43.9983V50.8688C24.2151 56.3167 26.3542 61.4097 30.2387 65.2097C33.9873 68.8773 38.893 70.8759 44.1083 70.8759C44.296 70.8759 44.4837 70.8731 44.6728 70.8674C52.1434 70.6618 58.639 66.1097 61.8595 59.6364H71.7087C73.8491 59.6364 75.589 57.8857 75.589 55.735V49.7237C75.589 47.5716 73.8477 45.8223 71.7087 45.8223L71.7059 45.8251ZM19.4285 57.3857H16.519C15.6155 57.3857 14.8801 56.6463 14.8801 55.7378V49.7265C14.8801 48.8181 15.6155 48.0786 16.519 48.0786H19.4285V57.3857ZM44.6097 68.6181C39.7951 68.7449 35.2452 66.9674 31.8006 63.597C28.3532 60.2252 26.4551 55.7054 26.4551 50.8702V43.9997C26.4551 42.1997 27.6192 40.6307 29.3506 40.0955C33.2631 38.8871 40.0977 36.0885 44.1125 30.5067C48.1272 36.0885 54.9618 38.8856 58.8743 40.0955C60.6072 40.6307 61.7712 42.1997 61.7712 43.9997V50.4772C61.7712 52.9125 61.2894 55.2491 60.4194 57.3857H51.5368V55.9308C51.5368 55.3082 51.0353 54.804 50.4162 54.804H43.5703C42.9512 54.804 42.4497 55.3082 42.4497 55.9308V61.0928C42.4497 61.7153 42.9512 62.2195 43.5703 62.2195H50.4162C51.0353 62.2195 51.5368 61.7153 51.5368 61.0928V59.6378H59.317C56.3108 64.8533 50.8434 68.4435 44.6097 68.6153V68.6181ZM49.2955 57.0589V59.9674H44.691V57.0589H49.2955ZM73.3448 55.7378C73.3448 56.6463 72.6094 57.3857 71.7059 57.3857H68.7964V48.0786H71.7059C72.6094 48.0786 73.3448 48.8181 73.3448 49.7265V55.7378Z" fill="white"/>
<defs>
<linearGradient id="paint0_linear_3_6626" x1="87.6147" y1="44.1011" x2="0.614747" y2="44.1011" gradientUnits="userSpaceOnUse">
<stop stop-color="#115373"/>
<stop offset="1" stop-color="#115373"/>
</linearGradient>
</defs>
</svg>
